<?xml version="1.0" encoding="UTF-8"?>
<svg id="Capa_1" data-name="Capa 1" xmlns="http://www.w3.org/2000/svg" viewBox="0 0 25.57 25.57">
  <defs>
    <style>
      .cls-1 {
        fill: #fff;
      }

      .cls-1, .cls-2 {
        stroke-width: 0px;
      }

      .cls-2 {
        fill: #0d0f1e;
      }
    </style>
  </defs>
  <circle class="cls-1" cx="12.78" cy="12.78" r="12.78"/>
  <path class="cls-2" d="M7.2,7.58c-.53,0-1.04,0-1.56,0-.31,0-.56-.26-.59-.55-.04-.35.28-.66.56-.66,1.08,0,2.15-.01,3.23,0,.19,0,.36.06.47.17.14.14.16.33.17.48.05.72-.03,1.14-.03,1.14-.23,1.21-.17,2.5-.45,2.61,0,0,0,0,0,0-.34.06-.61-.12-.7-.44-.02-.05-.02-.11-.02-.16,0-.57,0-1.13,0-1.7v-.18l-.04-.02c-.14.16-.3.3-.43.47-.4.49-.74,1.02-.99,1.59-.23.53-.43,1.08-.47,1.67-.04.53-.1,1.06-.07,1.59.04.67.21,1.31.47,1.93.31.73.73,1.39,1.26,1.99.88.98,1.97,1.61,3.23,1.96.71.2,1.44.25,2.16.19,1.25-.11,2.4-.52,3.42-1.27,1.03-.76,1.8-1.72,2.26-2.92.21-.54.35-1.09.41-1.67.17-1.53-.13-2.94-.92-4.26-.32-.53-.71-1.01-1.17-1.42-.79-.72-1.71-1.23-2.74-1.51-.47-.13-.96-.2-1.46-.21-.25,0-.52.02-.72-.21-.17-.2-.23-.46-.11-.68.12-.24.39-.38.65-.34.07.01.13.03.2.03.69,0,1.36.13,2.01.33.9.26,1.72.68,2.45,1.26,1.3,1.01,2.24,2.29,2.71,3.87.15.48.22.99.3,1.49.05.29.08.58.07.87-.01.39-.06.78-.11,1.16-.09.83-.36,1.61-.72,2.36-.44.91-1.06,1.7-1.81,2.37-.95.84-2.04,1.43-3.27,1.74-.41.11-.85.16-1.27.2-.36.04-.72.05-1.09.04-.8-.02-1.57-.2-2.31-.47-.58-.21-1.12-.49-1.63-.83-.53-.35-1.01-.75-1.43-1.21-.93-1.03-1.56-2.22-1.89-3.58-.19-.79-.24-1.58-.17-2.37.12-1.46.6-2.8,1.48-3.98.21-.28.43-.55.65-.84Z"/>
</svg>