<?xml version="1.0" encoding="UTF-8"?>
<svg id="Capa_1" data-name="Capa 1" xmlns="http://www.w3.org/2000/svg" viewBox="0 0 10.46 9.88">
  <defs>
    <style>
      .cls-1 {
        fill: #fff;
        stroke-width: 0px;
      }
    </style>
  </defs>
  <path class="cls-1" d="M1.73,9.88s-.06-.03-.09-.04c-.07-.05-.09-.12-.09-.2,0-.51,0-1.01,0-1.52,0-1.02,0-2.03,0-3.05,0-.03,0-.05.03-.08.44-.39.89-.78,1.33-1.18.37-.32.73-.65,1.1-.97.4-.35.8-.71,1.2-1.06,0,0,0,0,.01,0,.09.08.18.16.27.23.42.37.84.74,1.26,1.11.44.39.89.78,1.33,1.18.26.23.53.46.79.7.01.01.03.04.03.06,0,1.53,0,3.05,0,4.58,0,.13-.06.2-.17.24h-2.34c0-.67,0-1.34,0-2,0-.16-.09-.25-.25-.25-.61,0-1.21,0-1.82,0-.16,0-.25.09-.25.25,0,.67,0,1.34,0,2H1.73Z"/>
  <path class="cls-1" d="M0,4.6c.25-.22.5-.44.74-.66.44-.39.88-.78,1.32-1.17.46-.4.92-.81,1.37-1.22.49-.43.98-.87,1.47-1.3.1-.09.2-.18.29-.26.02,0,.03,0,.04,0,.01,0,.03,0,.04.02.16.14.31.27.47.41.49.43.97.86,1.46,1.29.39.35.79.7,1.18,1.04.36.32.72.64,1.08.96.32.29.65.57.97.86,0,0,.01.01.02.02-.18.21-.36.41-.55.62-1.56-1.38-3.12-2.76-4.68-4.14C3.67,2.46,2.11,3.84.55,5.22c-.06-.06-.11-.13-.17-.19-.12-.13-.23-.26-.35-.4,0,0-.02-.02-.03-.03,0,0,0,0,0,0Z"/>
  <path class="cls-1" d="M2.88.66c0,.06,0,.11,0,.17,0,.19,0,.39,0,.58,0,.02,0,.03-.02.04-.32.29-.64.58-.96.87-.11.1-.21.19-.32.29V.66h1.31Z"/>
</svg>